<svg xmlns="http://www.w3.org/2000/svg" width="1000" height="1000" viewBox="0 0 1000 1000">
  <rect x="0" y="0" width="1000" height="1000" fill="#FFFFFF"/>
  <g id="symbol">
    <path
      d="M470 300 C590 290 700 360 720 470 C740 580 670 680 550 700 C430 720 290 680 230 570 C170 460 220 340 320 300 C390 270 430 280 470 300 Z"
      fill="#F4A261"
      opacity="1"
      transform="rotate(-18 470 500)"
    />
    <path
      d="M530 280 C650 260 760 330 780 430 C800 540 730 630 620 660 C500 690 360 650 300 560 C240 470 270 350 360 300 C430 260 490 270 530 280 Z"
      fill="#2F6FED"
      opacity="0.85"
      transform="rotate(12 530 470)"
    />
    <path
      d="M530 350 C640 330 740 390 770 480 C800 570 750 670 650 720 C550 760 420 740 340 660 C260 580 260 470 330 400 C390 340 470 340 530 350 Z"
      fill="#3CB371"
      opacity="0.85"
      transform="rotate(32 530 540)"
    />
  </g>
</svg>
